<?xml version="1.0" standalone="no"?>
<!DOCTYPE svg PUBLIC "-//W3C//DTD SVG 20010904//EN"
 "http://www.w3.org/TR/2001/REC-SVG-20010904/DTD/svg10.dtd">
<svg version="1.0" xmlns="http://www.w3.org/2000/svg"
 width="139.000000pt" height="64.000000pt" viewBox="0 0 139.000000 64.000000"
 preserveAspectRatio="xMidYMid meet">

<g transform="translate(0.000000,64.000000) scale(0.100000,-0.100000)"
fill="#000000" stroke="none">
<path d="M242 566 c3 -42 8 -80 12 -83 10 -11 96 37 112 63 8 11 12 28 8 37
-6 18 -54 42 -103 52 l-34 7 5 -76z"/>
<path d="M590 604 c-69 -13 -130 -26 -137 -28 -6 -3 -35 -41 -63 -86 -38 -58
-57 -79 -69 -76 -55 16 -94 16 -152 0 -51 -14 -74 -28 -116 -69 -29 -28 -53
-60 -53 -70 0 -16 5 -14 33 12 51 49 88 63 164 63 37 0 74 -4 82 -9 28 -18 -1
-31 -70 -31 -80 0 -131 -21 -172 -70 -90 -107 14 -242 183 -239 l45 1 -55 12
c-114 25 -165 75 -157 154 5 51 34 86 92 113 38 18 115 26 115 13 0 -4 -18
-35 -40 -70 -22 -35 -40 -66 -40 -69 0 -3 9 -5 20 -5 13 0 35 25 71 80 28 44
54 80 57 80 3 0 13 -7 23 -16 16 -15 20 -14 48 2 39 23 39 36 2 67 l-29 24 50
79 c28 44 55 82 60 85 5 4 71 16 146 29 131 21 198 38 161 39 -9 1 -29 3 -45
5 -16 3 -85 -6 -154 -20z"/>
<path d="M501 516 c-10 -12 -34 -136 -28 -142 1 -2 62 -4 136 -5 131 -2 134
-2 165 24 l31 26 -23 19 c-25 19 -225 92 -253 92 -9 0 -22 -6 -28 -14z"/>
<path d="M1121 444 c-163 -50 -223 -55 -257 -23 l-23 22 -28 -34 c-15 -18 -28
-38 -28 -43 0 -14 87 -34 154 -35 46 -1 213 25 389 60 48 10 52 13 52 39 0 73
-58 76 -259 14z"/>
<path d="M1170 301 c111 -16 170 -65 170 -144 0 -59 -48 -105 -136 -127 -63
-17 -66 -18 -29 -19 154 -3 261 118 193 219 -35 51 -90 74 -178 77 -73 2 -73
1 -20 -6z"/>
</g>
</svg>
